<svg xmlns="http://www.w3.org/2000/svg" viewBox="0 0 256 256"><path d="M5.97 0H173.28s57.745 179.58 63.174 185.5S256 236 256 236v20H57.297L27.19 169.214 5.97 17.695z" fill="#fbdd11"/><path d="M256 236.002V256h-47.27C143.914 185.09 116.072 49.204 107.765.002h65.517s57.744 179.576 63.173 185.5 19.545 50.5 19.545 50.5z" fill="#fff" opacity=".3"/><path d="M79.06 62.137c-3.56-5.893-6.77-6.92-14.033-3.378-12.868 6.274-27.166 8.788-39.742 17.064-5.302 3.5-3.444 6.08-3.198 8.3 6.3 57.155 19.08 112.664 42.854 165.3A55.372 55.372 0 0 1 67 256H49.632a51.599 51.599 0 0 0-2.272-6.599c-17.995-42.472-29.876-86.64-37.284-132.126C3.747 78.417 1.215 39.23 0 0h17l3.07 68.022c7.08-15.2 18.887-17.448 30.923-19.232 11.395-1.7 20.947-7.85 30.867-13.083 1.77 2.988.727 5.332-.47 7.82-2.928 6.086-5.45 12 1.536 17.564 2.2 1.744.792 3.563-2.203 2.78zM181 0l35.903 116.342c8.75 27.628 19.172 54.65 32.388 80.503A78.537 78.537 0 0 0 256 208.292v28.962c-21.393-30.44-36.917-65.534-48.8-100.472-11.1-32.64-20.934-65.718-31.323-98.602l-.05.147L165 0z"/><path d="M175.866 38.18c-16.977 2.84-34.32 3.656-50.82 9.162-1.358.453-2.23 1.278-4.188-.23-4.15-3.197-4.725-2.813-6.04 1.912-1 3.633-5.63 1.378-7.172 6.462-1.06-8.633-4.5-14.74-3.583-22.426.538-4.455 2.56-5.84 4.97-4.8 14.534 6.223 28.16.25 42.034-2.395 15.322-2.92 16.465-2.395 24.75 12.424-.003.044.047-.103.047-.103zm-78.002 72.583c1.348 3.398 2.107 6.248 3.527 8.717 4.352 7.567 9.294 8.072 13.075.434 2.602-5.256 8.968-.125 10.482-5.438a16.481 16.481 0 0 1 6.043 12.106c.338 6.054-4.713 5.27-8.44 5.764-1.696.225-3.503.232-4.364 1.803-3.12 5.696-6.074 10.058-10.73 1.045-1.372-2.656-3.304-.863-4.824.416-5.33 4.483-7.916 1.087-9.133-3.667-1.877-7.332-3.014-14.807 4.362-21.18zm38.274 40.937c7.423-1.363 11.44 6.036 18.18 7.038 2.37.352.9 4.018-.7 5.832-2.222 2.552-5.4 2.32-8.358 2.434-14.514.555-28.3 3.724-41 11.046-2.108 1.215-4.867 3.818-6.862.4a7.846 7.846 0 0 1 .326-8.481c9.24-13.593 23.825-15.978 38.396-18.258zm-30.888 20.972c13.68-6.16 26.848-9.087 42.587-11.244-13.378-10.722-23.946-.292-34.635-.32-4.916-.013-7.116 4.77-7.952 11.565zm10.35 23.643c13.565-.694 25.542-2.627 36.845-8.688-2.92 7.797-6.317 14.692-14.525 18.17-9.985 4.23-16.173-.36-22.32-9.482zM33.637 79.96C46.5 75.6 59.195 74.267 70.2 67.953c2.22-1.273 5.624-.993 6.614 2.322.88 2.948-1.844 3.867-3.948 4.798L49.172 85.516c-6.583 3.042-10.187-1.423-15.535-5.556zm49.323-4.162c3.015-1.567 6.354-3.47 7.984 1.354 3.098 9.165 5.837 18.45 9.092 28.862-5.847-2.66-4.8-7.646-7.674-10.72-2.48 2.454-.46 7.4-5.004 9.324-2.748-9.592-8.332-18.572-4.15-29.133-.004.01-.247.314-.247.314z"/><path d="M146.376 55.26l13.994.043c1.95.055 4.405.282 4.483 2.866.075 2.497-2.394 2.77-4.243 3.394-10.822 3.647-21.82.23-32.724.778-1.648.083-3.5-.672-3.55-2.722-.054-1.895 1.562-2.86 3.162-3.333 6.2-1.83 12.565-1.083 18.878-1.025zM79.06 62.137l1.663 1.734c1.365 3.866 3.722 7.547 2.232 11.937.004-.01.246-.314.25-.324-2.793 2.17-3.727 6.316-8.707 7.72-.428-6.682 15.767-18.164-6.002-17.796 3.75-5.085 7.324-3.5 10.563-3.27z"/></svg>